<svg width="16" height="16" viewBox="0 0 16 16" fill="none" xmlns="http://www.w3.org/2000/svg">
<path d="M13 2.5H3C2.72386 2.5 2.5 2.72386 2.5 3V13C2.5 13.2761 2.72386 13.5 3 13.5H13C13.2761 13.5 13.5 13.2761 13.5 13V3C13.5 2.72386 13.2761 2.5 13 2.5Z" stroke="#3E74FF" stroke-linecap="round" stroke-linejoin="round"/>
<path d="M11 1.5V3.5" stroke="#3E74FF" stroke-linecap="round" stroke-linejoin="round"/>
<path d="M5 1.5V3.5" stroke="#3E74FF" stroke-linecap="round" stroke-linejoin="round"/>
<path d="M2.5 5.5H13.5" stroke="#3E74FF" stroke-linecap="round" stroke-linejoin="round"/>
<path d="M5.75 8H7.5L6.5 9.25C6.66457 9.24972 6.82667 9.29006 6.97192 9.36744C7.11717 9.44483 7.24107 9.55686 7.33264 9.69361C7.4242 9.83036 7.4806 9.9876 7.49684 10.1514C7.51307 10.3151 7.48863 10.4804 7.42569 10.6324C7.36275 10.7845 7.26325 10.9187 7.13602 11.0231C7.00879 11.1275 6.85776 11.1988 6.69633 11.2309C6.5349 11.2629 6.36807 11.2546 6.21062 11.2067C6.05317 11.1588 5.90998 11.0728 5.79375 10.9562" stroke="#3E74FF" stroke-linecap="round" stroke-linejoin="round"/>
<path d="M9 8.75L10 8V11.25" stroke="#3E74FF" stroke-linecap="round" stroke-linejoin="round"/>
</svg>
