<svg width="16" height="16" viewBox="0 0 16 16" fill="none" xmlns="http://www.w3.org/2000/svg">
<path d="M13.85 9.33728C13.9537 8.88217 14.004 8.41654 14 7.94978C13.975 4.64353 11.2375 1.96853 7.93748 1.99978C6.52769 2.01465 5.16816 2.52549 4.09742 3.44269C3.02668 4.35988 2.31313 5.62484 2.08195 7.01563C1.85078 8.40641 2.11675 9.83419 2.83319 11.0485C3.54964 12.2627 4.67081 13.1859 5.99998 13.656C6.22608 13.7375 6.4685 13.7632 6.70665 13.7309C6.9448 13.6987 7.17166 13.6095 7.36797 13.4708C7.56427 13.3322 7.72423 13.1482 7.83425 12.9346C7.94428 12.7209 8.00113 12.4839 7.99998 12.2435V11.9998C7.99915 11.8026 8.03739 11.6071 8.11248 11.4248C8.18757 11.2424 8.29802 11.0767 8.43748 10.9373C8.57693 10.7978 8.74262 10.6874 8.92498 10.6123C9.10734 10.5372 9.30277 10.499 9.49998 10.4998H12.3875C12.7268 10.5 13.0562 10.3852 13.3218 10.174C13.5874 9.96288 13.7736 9.66791 13.85 9.33728V9.33728Z" stroke="#3E74FF" stroke-linecap="round" stroke-linejoin="round"/>
<path d="M8 5.5C8.41421 5.5 8.75 5.16421 8.75 4.75C8.75 4.33579 8.41421 4 8 4C7.58579 4 7.25 4.33579 7.25 4.75C7.25 5.16421 7.58579 5.5 8 5.5Z" fill="#3E74FF"/>
<path d="M5.1875 7.125C5.60171 7.125 5.9375 6.78921 5.9375 6.375C5.9375 5.96079 5.60171 5.625 5.1875 5.625C4.77329 5.625 4.4375 5.96079 4.4375 6.375C4.4375 6.78921 4.77329 7.125 5.1875 7.125Z" fill="#3E74FF"/>
<path d="M5.1875 10.375C5.60171 10.375 5.9375 10.0392 5.9375 9.625C5.9375 9.21079 5.60171 8.875 5.1875 8.875C4.77329 8.875 4.4375 9.21079 4.4375 9.625C4.4375 10.0392 4.77329 10.375 5.1875 10.375Z" fill="#3E74FF"/>
<path d="M10.8125 7.125C11.2267 7.125 11.5625 6.78921 11.5625 6.375C11.5625 5.96079 11.2267 5.625 10.8125 5.625C10.3983 5.625 10.0625 5.96079 10.0625 6.375C10.0625 6.78921 10.3983 7.125 10.8125 7.125Z" fill="#3E74FF"/>
</svg>
