<svg width="17" height="17" viewBox="0 0 17 17" fill="none" xmlns="http://www.w3.org/2000/svg">
<path d="M13.8127 13.5H3.81274C3.54753 13.5 3.29317 13.3946 3.10564 13.2071C2.9181 13.0196 2.81274 12.7652 2.81274 12.5V5.5C2.81274 5.23478 2.9181 4.98043 3.10564 4.79289C3.29317 4.60536 3.54753 4.5 3.81274 4.5H5.81274L6.81274 3H10.8127L11.8127 4.5H13.8127C14.078 4.5 14.3323 4.60536 14.5199 4.79289C14.7074 4.98043 14.8127 5.23478 14.8127 5.5V12.5C14.8127 12.7652 14.7074 13.0196 14.5199 13.2071C14.3323 13.3946 14.078 13.5 13.8127 13.5Z" stroke="#EEEEEE" stroke-linecap="round" stroke-linejoin="round"/>
<path d="M8.81274 11C10.0554 11 11.0627 9.99264 11.0627 8.75C11.0627 7.50736 10.0554 6.5 8.81274 6.5C7.5701 6.5 6.56274 7.50736 6.56274 8.75C6.56274 9.99264 7.5701 11 8.81274 11Z" stroke="#EEEEEE" stroke-linecap="round" stroke-linejoin="round"/>
</svg>
