<svg width="16" height="17" viewBox="0 0 16 17" fill="none" xmlns="http://www.w3.org/2000/svg">
<path d="M4.33334 15.1667V10.5" stroke="#3E74FF" stroke-miterlimit="10" stroke-linecap="round" stroke-linejoin="round"/>
<path d="M4.33334 3.83334V1.83334" stroke="#3E74FF" stroke-miterlimit="10" stroke-linecap="round" stroke-linejoin="round"/>
<path d="M11.6667 15.1667V13.1667" stroke="#3E74FF" stroke-miterlimit="10" stroke-linecap="round" stroke-linejoin="round"/>
<path d="M11.6667 6.50001V1.83334" stroke="#3E74FF" stroke-miterlimit="10" stroke-linecap="round" stroke-linejoin="round"/>
<path d="M6.33334 5.16668V9.16668C6.33334 9.90001 6.00001 10.5 5.00001 10.5H3.66668C2.66668 10.5 2.33334 9.90001 2.33334 9.16668V5.16668C2.33334 4.43334 2.66668 3.83334 3.66668 3.83334H5.00001C6.00001 3.83334 6.33334 4.43334 6.33334 5.16668Z" stroke="#3E74FF" stroke-miterlimit="10" stroke-linecap="round" stroke-linejoin="round"/>
<path d="M13.6667 7.83333V11.8333C13.6667 12.5667 13.3333 13.1667 12.3333 13.1667H11C9.99999 13.1667 9.66666 12.5667 9.66666 11.8333V7.83333C9.66666 7.1 9.99999 6.5 11 6.5H12.3333C13.3333 6.5 13.6667 7.1 13.6667 7.83333Z" fill="#3E74FF" stroke="#3E74FF" stroke-miterlimit="10" stroke-linecap="round" stroke-linejoin="round"/>
</svg>
