<svg width="13" height="14" viewBox="0 0 13 14" fill="none" xmlns="http://www.w3.org/2000/svg">
<path d="M1.54064 1H11.2722C11.4156 1 11.5531 1.05696 11.6545 1.15835C11.7559 1.25974 11.8128 1.39725 11.8128 1.54064V11.8128C11.8128 12.243 11.6419 12.6555 11.3378 12.9597C11.0336 13.2639 10.6211 13.4348 10.1909 13.4348H2.62192C2.19176 13.4348 1.77922 13.2639 1.47505 12.9597C1.17088 12.6555 1 12.243 1 11.8128V1.54064C1 1.39725 1.05696 1.25974 1.15835 1.15835C1.25974 1.05696 1.39725 1 1.54064 1Z" stroke="#C7C7C7" stroke-width="0.772345" stroke-linecap="round" stroke-linejoin="round"/>
<path d="M4.24384 4.78448H8.56897" stroke="#C7C7C7" stroke-width="0.772345" stroke-linecap="round" stroke-linejoin="round"/>
<path d="M4.24384 6.94705H8.56897" stroke="#C7C7C7" stroke-width="0.772345" stroke-linecap="round" stroke-linejoin="round"/>
<path d="M4.24384 9.10962H8.56897" stroke="#C7C7C7" stroke-width="0.772345" stroke-linecap="round" stroke-linejoin="round"/>
</svg>
