<svg width="57" height="13" viewBox="0 0 57 13" fill="none" xmlns="http://www.w3.org/2000/svg">
<path d="M2.96135e-06 2.34042C2.96135e-06 1.04784 1.04785 0 2.34043 0H10.2979V2.57447C6.73202 3.7901 6.58292 8.77812 10.0698 10.2046L10.2979 10.2979V12.6383H2.34043C1.04784 12.6383 2.96135e-06 11.5905 2.96135e-06 10.2979V2.34042Z" fill="#4067F1"/>
<path d="M13.8085 6.32579C13.8085 8.1354 12.5511 9.5891 11 9.5891C9.44891 9.5891 8.1915 8.1354 8.1915 6.32579C8.1915 4.51618 9.44891 3.04919 11 3.04919C12.5511 3.04919 13.8085 4.51618 13.8085 6.32579Z" fill="#B9B9B9"/>
<path d="M22 2.34042C22 1.04784 20.9522 0 19.6596 0H11.7021V2.57447C15.268 3.7901 15.4171 8.77812 11.9302 10.2046L11.7021 10.2979V12.6383H19.6596C20.9522 12.6383 22 11.5905 22 10.2979V2.34042Z" fill="#A30606"/>
<path d="M34 5.14893C34 2.30526 36.3053 0 39.1489 0H42.7973C43.626 0 44.2979 0.67185 44.2979 1.50062C44.2979 2.14278 43.8893 2.71376 43.2815 2.92097L42.1208 3.31663C39.3088 4.27528 39.1913 8.2088 41.941 9.33369L43.4278 9.94192C43.954 10.1572 44.2979 10.6694 44.2979 11.238C44.2979 12.0114 43.6709 12.6383 42.8976 12.6383H39.1489C36.3053 12.6383 34 10.333 34 7.48936V5.14893Z" fill="#4067F1"/>
<path d="M45.2979 9.31915C46.9547 9.31915 48.2979 7.97601 48.2979 6.31915C48.2979 4.6623 46.9547 3.31915 45.2979 3.31915C43.641 3.31915 42.2979 4.6623 42.2979 6.31915C42.2979 7.97601 43.641 9.31915 45.2979 9.31915Z" fill="#EEEEEE" stroke="#EEEEEE" stroke-miterlimit="10"/>
<path d="M45.2979 4.56915V6.31915H47.0479" stroke="#4067F1" stroke-linecap="round" stroke-linejoin="round"/>
<path d="M56.5957 5.14893C56.5957 2.30526 54.2905 0 51.4468 0H47.7985C46.9697 0 46.2979 0.67185 46.2979 1.50062C46.2979 2.14278 46.7065 2.71376 47.3143 2.92097L48.4749 3.31663C51.2869 4.27528 51.4045 8.2088 48.6547 9.33369L47.168 9.94192C46.6417 10.1572 46.2979 10.6694 46.2979 11.238C46.2979 12.0114 46.9248 12.6383 47.6982 12.6383H51.4468C54.2905 12.6383 56.5957 10.333 56.5957 7.48936V5.14893Z" fill="#A30606"/>
</svg>
