<svg width="20" height="21" viewBox="0 0 20 21" fill="none" xmlns="http://www.w3.org/2000/svg">
<path d="M14.1667 19.037H5.83335C2.50002 19.037 1.66669 18.2037 1.66669 14.8703V13.2037C1.66669 9.87032 2.50002 9.03699 5.83335 9.03699H14.1667C17.5 9.03699 18.3334 9.87032 18.3334 13.2037V14.8703C18.3334 18.2037 17.5 19.037 14.1667 19.037Z" stroke="#EEEEEE" stroke-linecap="round" stroke-linejoin="round"/>
<path d="M5 9.03703V7.37036C5 4.61203 5.83333 2.37036 10 2.37036C13.75 2.37036 15 4.03703 15 6.53703" stroke="#EEEEEE" stroke-linecap="round" stroke-linejoin="round"/>
<path d="M10 16.1203C11.1506 16.1203 12.0834 15.1876 12.0834 14.037C12.0834 12.8864 11.1506 11.9537 10 11.9537C8.84943 11.9537 7.91669 12.8864 7.91669 14.037C7.91669 15.1876 8.84943 16.1203 10 16.1203Z" stroke="#EEEEEE" stroke-linecap="round" stroke-linejoin="round"/>
</svg>
