<svg width="13" height="12" viewBox="0 0 13 12" fill="none" xmlns="http://www.w3.org/2000/svg">
<path d="M6.33118 8.24976C7.57382 8.24976 8.58118 7.2424 8.58118 5.99976C8.58118 4.75712 7.57382 3.74976 6.33118 3.74976C5.08854 3.74976 4.08118 4.75712 4.08118 5.99976C4.08118 7.2424 5.08854 8.24976 6.33118 8.24976Z" stroke="white" stroke-width="0.5" stroke-linecap="round" stroke-linejoin="round"/>
<path d="M9.58431 3.78262C9.69716 3.94418 9.79596 4.11512 9.87963 4.29355L11.0937 4.96855C11.2453 5.64753 11.2469 6.3514 11.0984 7.03105L9.87963 7.70605C9.79596 7.88449 9.69716 8.05543 9.58431 8.21699L9.60775 9.60918C9.09323 10.078 8.48426 10.4313 7.82181 10.6451L6.6265 9.92793C6.42988 9.94199 6.2325 9.94199 6.03588 9.92793L4.84525 10.6404C4.18071 10.4305 3.56973 10.0786 3.05463 9.60918L3.07807 8.22168C2.96616 8.05788 2.86741 7.88546 2.78275 7.70605L1.56869 7.03105C1.4171 6.35208 1.4155 5.64821 1.564 4.96855L2.78275 4.29355C2.86642 4.11512 2.96522 3.94418 3.07807 3.78262L3.05463 2.39043C3.56915 1.92157 4.17812 1.56834 4.84056 1.35449L6.03588 2.07168C6.2325 2.05762 6.42988 2.05762 6.6265 2.07168L7.81713 1.35918C8.48167 1.56913 9.09265 1.921 9.60775 2.39043L9.58431 3.78262Z" stroke="white" stroke-width="0.5" stroke-linecap="round" stroke-linejoin="round"/>
</svg>
