<svg width="13" height="12" viewBox="0 0 13 12" fill="none" xmlns="http://www.w3.org/2000/svg">
<path d="M10.0812 4.12476H2.58118C2.37407 4.12476 2.20618 4.29265 2.20618 4.49976V9.74976C2.20618 9.95686 2.37407 10.1248 2.58118 10.1248H10.0812C10.2883 10.1248 10.4562 9.95686 10.4562 9.74976V4.49976C10.4562 4.29265 10.2883 4.12476 10.0812 4.12476Z" stroke="white" stroke-width="0.5" stroke-linecap="round" stroke-linejoin="round"/>
<path d="M4.64368 4.12476V2.43726C4.64368 1.9897 4.82147 1.56048 5.13793 1.24401C5.4544 0.927546 5.88362 0.749756 6.33118 0.749756C6.77873 0.749756 7.20795 0.927546 7.52442 1.24401C7.84089 1.56048 8.01868 1.9897 8.01868 2.43726" stroke="white" stroke-width="0.5" stroke-linecap="round" stroke-linejoin="round"/>
<path d="M6.33118 7.68726C6.64184 7.68726 6.89368 7.43542 6.89368 7.12476C6.89368 6.8141 6.64184 6.56226 6.33118 6.56226C6.02052 6.56226 5.76868 6.8141 5.76868 7.12476C5.76868 7.43542 6.02052 7.68726 6.33118 7.68726Z" fill="white"/>
</svg>
