<svg width="20" height="22" viewBox="0 0 20 22" fill="none" xmlns="http://www.w3.org/2000/svg">
<path d="M11.6667 5.87024H9.16667C8.25 5.87024 7.5 5.12024 7.5 4.20357V2.53691C7.5 1.62024 8.25 0.870239 9.16667 0.870239H11.6667C12.5833 0.870239 13.3333 1.62024 13.3333 2.53691V4.20357C13.3333 5.12024 12.5833 5.87024 11.6667 5.87024Z" stroke="#EEEEEE" stroke-linecap="round" stroke-linejoin="round"/>
<path d="M17.3333 13.7869H14.3333C13.7833 13.7869 13.3333 13.3369 13.3333 12.7869V11.4536C13.3333 10.9036 13.7833 10.4536 14.3333 10.4536H17.3333C17.8833 10.4536 18.3333 10.9036 18.3333 11.4536V12.7869C18.3333 13.3369 17.8833 13.7869 17.3333 13.7869Z" stroke="#EEEEEE" stroke-linecap="round" stroke-linejoin="round"/>
<path d="M10.8333 5.87024H9.99998" stroke="#EEEEEE" stroke-width="1.5" stroke-miterlimit="10" stroke-linecap="round" stroke-linejoin="round"/>
<path d="M10.4167 5.87024V16.7036C10.4167 17.6202 11.1667 18.3702 12.0834 18.3702H13.3334" stroke="#EEEEEE" stroke-miterlimit="10" stroke-linecap="round" stroke-linejoin="round"/>
<path d="M10.4167 12.1202H13.3334" stroke="#EEEEEE" stroke-miterlimit="10" stroke-linecap="round" stroke-linejoin="round"/>
<path d="M17.3333 20.0369H14.3333C13.7833 20.0369 13.3333 19.5869 13.3333 19.0369V17.7036C13.3333 17.1536 13.7833 16.7036 14.3333 16.7036H17.3333C17.8833 16.7036 18.3333 17.1536 18.3333 17.7036V19.0369C18.3333 19.5869 17.8833 20.0369 17.3333 20.0369Z" stroke="#EEEEEE" stroke-linecap="round" stroke-linejoin="round"/>
</svg>
