<svg width="20" height="21" viewBox="0 0 20 21" fill="none" xmlns="http://www.w3.org/2000/svg">
<path d="M12.9833 10.7035C12.9833 12.3535 11.65 13.6869 10 13.6869C8.35 13.6869 7.01666 12.3535 7.01666 10.7035C7.01666 9.05355 8.35 7.72021 10 7.72021C11.65 7.72021 12.9833 9.05355 12.9833 10.7035Z" stroke="#EEEEEE" stroke-linecap="round" stroke-linejoin="round"/>
<path d="M9.99999 17.5954C12.9417 17.5954 15.6833 15.862 17.5917 12.862C18.3417 11.687 18.3417 9.71204 17.5917 8.53704C15.6833 5.53704 12.9417 3.80371 9.99999 3.80371C7.05833 3.80371 4.31666 5.53704 2.40833 8.53704C1.65833 9.71204 1.65833 11.687 2.40833 12.862C4.31666 15.862 7.05833 17.5954 9.99999 17.5954Z" stroke="#EEEEEE" stroke-linecap="round" stroke-linejoin="round"/>
</svg>
